<svg id="Group_13" data-name="Group 13" xmlns="http://www.w3.org/2000/svg" xmlns:xlink="http://www.w3.org/1999/xlink"  viewBox="0 0 180 55">
  <defs>
    <clipPath id="clip-path">
      <path id="Clip_2" data-name="Clip 2" d="M0,0H30.643V29.94H0Z" fill="none"/>
    </clipPath>
    <clipPath id="clip-path-2">
      <path id="Clip_5" data-name="Clip 5" d="M0,0H41.662V44.761H0Z" fill="none"/>
    </clipPath>
  </defs>
  <g id="Group_3" data-name="Group 3" transform="translate(149.357 14.822)">
    <path id="Clip_2-2" data-name="Clip 2" d="M0,0H30.643V29.94H0Z" fill="none"/>
    <g id="Group_3-2" data-name="Group 3" clip-path="url(#clip-path)">
      <path id="Fill_1" data-name="Fill 1" d="M15.306,29.939a15.184,15.184,0,0,1-5.945-1.175,15.354,15.354,0,0,1-8.147-7.972A14.142,14.142,0,0,1,0,14.97,14.235,14.235,0,0,1,1.214,9.133,15.256,15.256,0,0,1,4.5,4.378a15.671,15.671,0,0,1,4.857-3.2A15.139,15.139,0,0,1,15.306,0,15.161,15.161,0,0,1,21.2,1.159a16.1,16.1,0,0,1,4.857,3.154A15.11,15.11,0,0,1,29.38,9.006a14.155,14.155,0,0,1,1.264,5.774,3.094,3.094,0,0,1-.944,2.34,3.462,3.462,0,0,1-2.476.894H7.731A7.5,7.5,0,0,0,8.9,20.132a7.755,7.755,0,0,0,1.742,1.632A7.891,7.891,0,0,0,12.812,22.8a8.538,8.538,0,0,0,2.494.36,7.492,7.492,0,0,0,5.174-1.693,5.025,5.025,0,0,1,1.248-.643,3.618,3.618,0,0,1,1.149-.2,2.877,2.877,0,0,1,1.6.454,3.758,3.758,0,0,1,1.152,1.177,3.712,3.712,0,0,1,.463,1.083,3.088,3.088,0,0,1,.062,1.178,3.505,3.505,0,0,1-.383,1.174,3.271,3.271,0,0,1-.91,1.052,13.014,13.014,0,0,1-1.6,1.209A10.772,10.772,0,0,1,21.2,28.969a15.377,15.377,0,0,1-2.622.7A18.224,18.224,0,0,1,15.306,29.939Zm.158-23.13A9.486,9.486,0,0,0,12.7,7.2a8,8,0,0,0-2.333,1.129,7.63,7.63,0,0,0-1.774,1.758,7.252,7.252,0,0,0-1.086,2.275h16.01a7.2,7.2,0,0,0-1.1-2.321,7.373,7.373,0,0,0-1.807-1.758,8.1,8.1,0,0,0-2.363-1.1A10,10,0,0,0,15.465,6.809Z" fill="#ff8900"/>
    </g>
  </g>
  <g id="Group_6" data-name="Group 6">
    <path id="Clip_5-2" data-name="Clip 5" d="M0,0H41.662V44.761H0Z" fill="none"/>
    <g id="Group_6-2" data-name="Group 6" clip-path="url(#clip-path-2)">
      <path id="Fill_4" data-name="Fill 4" d="M26.466,44.761h0a14.838,14.838,0,0,1-2.11-.152,15.7,15.7,0,0,1-5.536-1.878A15.122,15.122,0,0,1,16.75,41.3c0,.03,0,.061,0,.091a2.294,2.294,0,0,1-.012.322,3.448,3.448,0,0,1-3.43,2.968,3.573,3.573,0,0,1-.446-.028,3.45,3.45,0,0,1-2.317-1.318A3.336,3.336,0,0,1,9.87,40.85a3.443,3.443,0,0,1,3.43-2.96c.115,0,.232.006.346.017a14.581,14.581,0,0,1-1.93-4.26L4.624,7.564l-.672.176a2.725,2.725,0,0,1-.691.089A3.368,3.368,0,0,1,.134,5.223,3.582,3.582,0,0,1,.45,2.506,2.808,2.808,0,0,1,2.165,1.169L6.2.11,6.39.061A3.6,3.6,0,0,1,7.152,0c.236,0,.435.01.464.014A3.328,3.328,0,0,1,8.864.467a3.575,3.575,0,0,1,.992.908A3.816,3.816,0,0,1,10.47,2.66l4.658,17.13a15.88,15.88,0,0,1,3.307-2.733,14.839,14.839,0,0,1,4.077-1.736,15.482,15.482,0,0,1,3.923-.52,14.492,14.492,0,0,1,2.111.155,15.693,15.693,0,0,1,5.5,1.868,15.371,15.371,0,0,1,4.4,3.769,14.531,14.531,0,0,1,2.691,5.335,14.314,14.314,0,0,1,.367,5.912,14.988,14.988,0,0,1-5.712,9.768,14.9,14.9,0,0,1-5.417,2.638A15.454,15.454,0,0,1,26.466,44.761ZM26.43,21.618A8.39,8.39,0,0,0,24.3,21.9a8.068,8.068,0,0,0-2.949,1.44,8.576,8.576,0,0,0-2.09,2.351,8.062,8.062,0,0,0-1.048,2.956,8.014,8.014,0,0,0,1.666,6.125,8.428,8.428,0,0,0,2.412,2.064,8.65,8.65,0,0,0,3.01,1.03,7.915,7.915,0,0,0,1.157.085,8.418,8.418,0,0,0,2.13-.282,8.068,8.068,0,0,0,2.948-1.44,8.41,8.41,0,0,0,2.086-2.366,7.994,7.994,0,0,0,.815-6.175,8.067,8.067,0,0,0-3.846-4.969A8.761,8.761,0,0,0,27.588,21.7,7.873,7.873,0,0,0,26.43,21.618Z" transform="translate(0 0)" fill="#ff8900"/>
    </g>
  </g>
  <path id="Fill_7" data-name="Fill 7" d="M30.626,30.2h0A3.461,3.461,0,0,1,27.28,27.68L26.441,24.6a18.073,18.073,0,0,1-3.15,2.949,12.718,12.718,0,0,1-4.1,1.89,15.354,15.354,0,0,1-3.9.517,14.624,14.624,0,0,1-2.1-.152A15.786,15.786,0,0,1,7.664,27.93a15.636,15.636,0,0,1-4.435-3.772,14.274,14.274,0,0,1-2.7-5.3,14.088,14.088,0,0,1-.362-5.931A15.176,15.176,0,0,1,5.918,3.161,14.8,14.8,0,0,1,11.3.525,15.546,15.546,0,0,1,15.257,0a14.708,14.708,0,0,1,2.1.151A15.275,15.275,0,0,1,27.263,5.8a14.594,14.594,0,0,1,2.676,5.322L33,22.351l.078.284.9,3.282a3.333,3.333,0,0,1-.333,2.56,3.434,3.434,0,0,1-2.118,1.609A3.533,3.533,0,0,1,30.626,30.2ZM15.25,6.817A8.456,8.456,0,0,0,13.1,7.1,8.113,8.113,0,0,0,10.165,8.54a8.5,8.5,0,0,0-2.1,2.357,8.028,8.028,0,0,0-1.046,2.957,8.018,8.018,0,0,0,1.67,6.123A8.431,8.431,0,0,0,11.1,22.038a8.637,8.637,0,0,0,3.01,1.027,7.874,7.874,0,0,0,1.151.085,8.39,8.39,0,0,0,2.136-.284,8.112,8.112,0,0,0,6.058-6.777,7.924,7.924,0,0,0-.213-3.209,8.083,8.083,0,0,0-1.457-2.913A8.177,8.177,0,0,0,19.4,7.911,8.554,8.554,0,0,0,16.4,6.9,8.054,8.054,0,0,0,15.25,6.817Z" transform="translate(44.496 14.752)" fill="#ff8900"/>
  <path id="Fill_9" data-name="Fill 9" d="M30.626,30.2h0A3.461,3.461,0,0,1,27.28,27.68L26.441,24.6a18.073,18.073,0,0,1-3.15,2.949,12.718,12.718,0,0,1-4.1,1.89,15.354,15.354,0,0,1-3.9.517,14.624,14.624,0,0,1-2.1-.152A15.786,15.786,0,0,1,7.664,27.93a15.636,15.636,0,0,1-4.435-3.772,14.274,14.274,0,0,1-2.7-5.3,14.088,14.088,0,0,1-.362-5.931A15.182,15.182,0,0,1,5.919,3.161,14.789,14.789,0,0,1,11.3.525,15.547,15.547,0,0,1,15.257,0a14.719,14.719,0,0,1,2.1.151A15.271,15.271,0,0,1,27.262,5.8a14.6,14.6,0,0,1,2.677,5.322L33,22.351l.078.284.895,3.282a3.331,3.331,0,0,1-.332,2.56,3.433,3.433,0,0,1-2.119,1.61A3.533,3.533,0,0,1,30.626,30.2ZM15.25,6.817A8.456,8.456,0,0,0,13.1,7.1,8.113,8.113,0,0,0,10.165,8.54a8.5,8.5,0,0,0-2.1,2.357,8.046,8.046,0,0,0-1.047,2.957,8.023,8.023,0,0,0,1.671,6.123A8.431,8.431,0,0,0,11.1,22.038a8.637,8.637,0,0,0,3.01,1.027,7.873,7.873,0,0,0,1.151.085,8.4,8.4,0,0,0,2.136-.284,8.112,8.112,0,0,0,6.058-6.777,7.924,7.924,0,0,0-.213-3.209,8.082,8.082,0,0,0-1.457-2.913A8.177,8.177,0,0,0,19.4,7.911,8.545,8.545,0,0,0,16.4,6.9,8.054,8.054,0,0,0,15.25,6.817Z" transform="translate(79.39 14.752)" fill="#ff8900"/>
  <path id="Fill_11" data-name="Fill 11" d="M12.625,40.178h-1.3a3.4,3.4,0,1,1,0-6.8c.337-.023,2.154-.045,4.258-.071,1.994-.024,4.252-.052,6.031-.088a5.718,5.718,0,0,0,3.234-1.069,5.258,5.258,0,0,0,1.978-2.706l.009-.029a5.625,5.625,0,0,0,.057-3.157L26.441,24.6a18.044,18.044,0,0,1-3.15,2.95,12.718,12.718,0,0,1-4.1,1.89,15.344,15.344,0,0,1-3.9.517,14.6,14.6,0,0,1-2.1-.153,15.545,15.545,0,0,1-9.96-5.649,14.274,14.274,0,0,1-2.7-5.3,14.088,14.088,0,0,1-.362-5.931A15.176,15.176,0,0,1,5.918,3.161,14.773,14.773,0,0,1,11.3.525,15.546,15.546,0,0,1,15.257,0a14.708,14.708,0,0,1,2.1.151A15.275,15.275,0,0,1,27.263,5.8a14.61,14.61,0,0,1,2.677,5.322L33,22.35l.078.285.525,2.146a12.094,12.094,0,0,1-.7,7.764l-.024.054a15.484,15.484,0,0,1-3.289,4.756l-.022.023-.012.012a9.554,9.554,0,0,1-3.241,2.064,10.656,10.656,0,0,1-3.812.712h-.266c-1.078,0-2.3.009-3.368.01C16.482,40.178,14.065,40.178,12.625,40.178ZM15.25,6.817A8.457,8.457,0,0,0,13.1,7.1,8.1,8.1,0,0,0,10.165,8.54a8.526,8.526,0,0,0-2.1,2.356,8.054,8.054,0,0,0-1.045,2.957,8.018,8.018,0,0,0,1.67,6.123A8.431,8.431,0,0,0,11.1,22.038a8.636,8.636,0,0,0,3.01,1.027,7.873,7.873,0,0,0,1.151.085,8.4,8.4,0,0,0,2.136-.284,8.112,8.112,0,0,0,6.058-6.777,7.942,7.942,0,0,0-.213-3.209A8.163,8.163,0,0,0,19.4,7.911,8.531,8.531,0,0,0,16.4,6.9,8.057,8.057,0,0,0,15.25,6.817Z" transform="translate(114.355 14.822)" fill="#ff8900"/>
</svg>
